<svg width="120" height="120" viewBox="0 0 120 120" fill="none" xmlns="http://www.w3.org/2000/svg">
<circle cx="60" cy="60" r="60" fill="#EEEEEE"/>
<path d="M71.6153 45.7778C71.6153 51.9166 66.6388 56.8931 60.5 56.8931C54.3612 56.8931 49.3847 51.9166 49.3847 45.7778C49.3847 39.639 54.3612 34.6625 60.5 34.6625C66.6388 34.6625 71.6153 39.639 71.6153 45.7778ZM35.0075 73.6008C41.688 67.7124 50.6465 64.1069 60.5 64.1069C70.3535 64.1069 79.3119 67.7124 85.9924 73.6008C86.2492 73.8271 86.3375 74.0599 86.3375 74.2535V85.037C86.3375 85.2887 86.1845 85.5976 85.7701 85.8738C85.3603 86.147 84.7561 86.3375 84.0556 86.3375H36.9444C36.2439 86.3375 35.6397 86.147 35.2299 85.8738C34.8155 85.5976 34.6625 85.2887 34.6625 85.037V74.2535C34.6625 74.0599 34.7508 73.8271 35.0075 73.6008Z" fill="white" stroke="white" stroke-width="1.325" stroke-linecap="round" stroke-linejoin="round"/>
</svg>
