<svg width="24" height="24" viewBox="0 0 24 24" fill="none" xmlns="http://www.w3.org/2000/svg">
<path d="M5 12V14.6667V19C5 19.5523 5.44772 20 6 20H19C19.5523 20 20 19.5523 20 19V14.6667V12" stroke="black"/>
<path d="M9.5 5.5H15.5V11C15.5 11.8284 14.8284 12.5 14 12.5H11C10.1716 12.5 9.5 11.8284 9.5 11V5.5Z" stroke="black"/>
<path d="M4.5 9C4.5 7.067 6.067 5.5 8 5.5H9.5V11C9.5 11.8284 8.82843 12.5 8 12.5H6C5.17157 12.5 4.5 11.8284 4.5 11V9Z" stroke="black"/>
<path d="M15.5 5.5H17C18.933 5.5 20.5 7.067 20.5 9V11C20.5 11.8284 19.8284 12.5 19 12.5H17C16.1716 12.5 15.5 11.8284 15.5 11V5.5Z" stroke="black"/>
<rect x="8" y="15" width="3" height="1" fill="black"/>
</svg>
