<svg width="35" height="13" viewBox="0 0 35 13" fill="none" xmlns="http://www.w3.org/2000/svg">
<rect width="35" height="13" rx="6.5" fill="url(#paint0_linear_7_25)"/>
<path d="M6.032 8.616L7.024 3.4L8.648 3.24L8.4 4.464C8.34133 4.71467 8.27467 4.928 8.2 5.104C8.31733 4.95467 8.504 4.85067 8.76 4.792C8.83467 4.77067 8.91733 4.76 9.008 4.76C9.504 4.76 9.888 4.912 10.16 5.216C10.432 5.51467 10.568 5.95467 10.568 6.536C10.568 7.29333 10.352 7.90933 9.92 8.384C9.456 8.90133 8.80267 9.16 7.96 9.16C7.37867 9.16 6.86933 9.064 6.432 8.872C6.27733 8.80267 6.144 8.71733 6.032 8.616ZM7.64 8.544C7.752 8.64 7.87733 8.688 8.016 8.688C8.15467 8.688 8.264 8.66133 8.344 8.608C8.424 8.55467 8.49333 8.47467 8.552 8.368C8.712 8.08 8.856 7.496 8.984 6.616C9.02133 6.36533 9.04 6.11467 9.04 5.864C9.04 5.61333 9.01067 5.448 8.952 5.368C8.89867 5.288 8.81867 5.248 8.712 5.248C8.38667 5.248 8.17067 5.56533 8.064 6.2L7.64 8.544ZM13.0581 8.664C12.8021 8.99467 12.3567 9.16 11.7221 9.16C11.3914 9.16 11.1061 9.06133 10.8661 8.864C10.6261 8.66133 10.5061 8.416 10.5061 8.128C10.5061 7.968 10.5141 7.848 10.5301 7.768L11.0661 4.92L12.6901 4.76L12.1061 7.848C12.0847 7.96533 12.0741 8.05867 12.0741 8.128C12.0741 8.43733 12.1674 8.592 12.3541 8.592C12.5621 8.592 12.7407 8.45067 12.8901 8.168C12.9381 8.07733 12.9727 7.97333 12.9941 7.856L13.5621 4.92L15.1381 4.76L14.5461 7.88C14.5301 7.96 14.5221 8.04267 14.5221 8.128C14.5221 8.21333 14.5461 8.304 14.5941 8.4C14.6421 8.49067 14.7434 8.54667 14.8981 8.568C14.8661 8.696 14.7941 8.80267 14.6821 8.888C14.4474 9.06933 14.2021 9.16 13.9461 9.16C13.6954 9.16 13.4954 9.11467 13.3461 9.024C13.1967 8.93333 13.1007 8.81333 13.0581 8.664ZM14.9042 8.616L15.8962 3.4L17.5202 3.24L17.2722 4.464C17.2135 4.71467 17.1469 4.928 17.0722 5.104C17.1895 4.95467 17.3762 4.85067 17.6322 4.792C17.7069 4.77067 17.7895 4.76 17.8802 4.76C18.3762 4.76 18.7602 4.912 19.0322 5.216C19.3042 5.51467 19.4402 5.95467 19.4402 6.536C19.4402 7.29333 19.2242 7.90933 18.7922 8.384C18.3282 8.90133 17.6749 9.16 16.8322 9.16C16.2509 9.16 15.7415 9.064 15.3042 8.872C15.1495 8.80267 15.0162 8.71733 14.9042 8.616ZM16.5122 8.544C16.6242 8.64 16.7495 8.688 16.8882 8.688C17.0269 8.688 17.1362 8.66133 17.2162 8.608C17.2962 8.55467 17.3655 8.47467 17.4242 8.368C17.5842 8.08 17.7282 7.496 17.8562 6.616C17.8935 6.36533 17.9122 6.11467 17.9122 5.864C17.9122 5.61333 17.8829 5.448 17.8242 5.368C17.7709 5.288 17.6909 5.248 17.5842 5.248C17.2589 5.248 17.0429 5.56533 16.9362 6.2L16.5122 8.544ZM19.2582 8.616L20.2502 3.4L21.8742 3.24L21.6262 4.464C21.5676 4.71467 21.5009 4.928 21.4262 5.104C21.5436 4.95467 21.7302 4.85067 21.9862 4.792C22.0609 4.77067 22.1436 4.76 22.2342 4.76C22.7302 4.76 23.1142 4.912 23.3863 5.216C23.6583 5.51467 23.7943 5.95467 23.7943 6.536C23.7943 7.29333 23.5782 7.90933 23.1462 8.384C22.6822 8.90133 22.0289 9.16 21.1862 9.16C20.6049 9.16 20.0956 9.064 19.6582 8.872C19.5036 8.80267 19.3702 8.71733 19.2582 8.616ZM20.8662 8.544C20.9782 8.64 21.1036 8.688 21.2422 8.688C21.3809 8.688 21.4902 8.66133 21.5702 8.608C21.6502 8.55467 21.7196 8.47467 21.7782 8.368C21.9382 8.08 22.0822 7.496 22.2102 6.616C22.2476 6.36533 22.2662 6.11467 22.2662 5.864C22.2662 5.61333 22.2369 5.448 22.1782 5.368C22.1249 5.288 22.0449 5.248 21.9382 5.248C21.6129 5.248 21.3969 5.56533 21.2902 6.2L20.8662 8.544ZM25.6283 8.56C25.463 8.96 25.1163 9.16 24.5883 9.16C24.3216 9.16 24.103 9.06667 23.9323 8.88C23.7936 8.72533 23.7243 8.56 23.7243 8.384C23.7243 7.984 23.8176 7.34667 24.0043 6.472L24.5883 3.4L26.2123 3.24L25.4363 7.288C25.3456 7.68267 25.3003 7.94933 25.3003 8.088C25.3003 8.392 25.4096 8.54933 25.6283 8.56ZM28.9901 7.648C29.1234 7.73867 29.1901 7.88533 29.1901 8.088C29.1901 8.28533 29.1394 8.448 29.0381 8.576C28.9367 8.704 28.8034 8.81067 28.6381 8.896C28.2967 9.072 27.9421 9.16 27.5741 9.16C27.2061 9.16 26.9127 9.12 26.6941 9.04C26.4807 8.96 26.3021 8.84533 26.1581 8.696C25.8754 8.41333 25.7341 8.01333 25.7341 7.496C25.7341 6.69067 25.9527 6.04267 26.3901 5.552C26.8594 5.024 27.5021 4.76 28.3181 4.76C28.8247 4.76 29.2034 4.86667 29.4541 5.08C29.6407 5.24 29.7341 5.45067 29.7341 5.712C29.7341 6.65067 28.9234 7.12 27.3021 7.12C27.2807 7.25867 27.2701 7.38667 27.2701 7.504C27.2701 7.74933 27.3234 7.92 27.4301 8.016C27.5421 8.10667 27.6994 8.152 27.9021 8.152C28.1047 8.152 28.3127 8.10667 28.5261 8.016C28.7447 7.92 28.8994 7.79733 28.9901 7.648ZM27.3581 6.776C27.7367 6.776 28.0354 6.65867 28.2541 6.424C28.4727 6.2 28.5821 5.90933 28.5821 5.552C28.5821 5.42933 28.5581 5.336 28.5101 5.272C28.4674 5.20267 28.4007 5.168 28.3101 5.168C28.2194 5.168 28.1341 5.18667 28.0541 5.224C27.9794 5.256 27.9021 5.33067 27.8221 5.448C27.6247 5.71467 27.4701 6.15733 27.3581 6.776Z" fill="white"/>
<defs>
<linearGradient id="paint0_linear_7_25" x1="8.5" y1="13" x2="30.5" y2="4.5" gradientUnits="userSpaceOnUse">
<stop stop-color="#FF59A5"/>
<stop offset="1" stop-color="#FDB83F"/>
</linearGradient>
</defs>
</svg>
