<svg width="44" height="44" viewBox="0 0 44 44" fill="none" xmlns="http://www.w3.org/2000/svg">
<circle cx="22" cy="22" r="11.75" stroke="white" stroke-width="0.5"/>
<path d="M21.5487 15.9457C21.7299 15.5661 22.2701 15.5661 22.4513 15.9457L23.8992 18.9802C23.9721 19.1329 24.1173 19.2384 24.2851 19.2605L27.6186 19.6999C28.0355 19.7549 28.2025 20.2687 27.8974 20.5583L25.4589 22.8731C25.3362 22.9896 25.2807 23.1603 25.3115 23.3268L25.9237 26.6328C26.0003 27.0463 25.5632 27.3639 25.1936 27.1633L22.2385 25.5594C22.0898 25.4787 21.9102 25.4787 21.7615 25.5594L18.8064 27.1633C18.4368 27.3639 17.9997 27.0463 18.0763 26.6328L18.6885 23.3268C18.7193 23.1603 18.6638 22.9896 18.5411 22.8731L16.1026 20.5583C15.7975 20.2687 15.9645 19.7549 16.3814 19.6999L19.7149 19.2605C19.8827 19.2384 20.0279 19.1329 20.1008 18.9802L21.5487 15.9457Z" fill="#019BE5"/>
</svg>
