<svg width="24" height="24" viewBox="0 0 24 24" fill="none" xmlns="http://www.w3.org/2000/svg">
<path fill-rule="evenodd" clip-rule="evenodd" d="M7 8.26704L19.9994 5.25784L20 5.25831L20 5.25886V18.7135L20 18.7141L19.9994 18.7147L7 15.4211V15.0007C7 15.0004 7 15.0001 7 14.9998V8.26704ZM6.72092 7.30676C6.73855 7.30164 6.75641 7.29698 6.77448 7.2928L19.7745 4.28347C20.4013 4.13838 21 4.61549 21 5.25886V18.7135C21 19.3654 20.3863 19.8443 19.7544 19.6842L6.7544 16.3905C6.51121 16.3289 6.30796 16.1811 6.17393 15.9847C6.11744 15.9946 6.05933 15.9998 6 15.9998H4C3.44772 15.9998 3 15.5521 3 14.9998V7.99978C3 7.4475 3.44772 6.99978 4 6.99978H6C6.28324 6.99978 6.53897 7.11753 6.72092 7.30676ZM6 8.26704V7.99978H4V14.9998H6V8.26704Z" fill="black"/>
<path d="M12.572 17.6551C12.1432 19.2555 10.4982 20.2053 8.89778 19.7765C7.29738 19.3476 6.34763 17.7026 6.77646 16.1022" stroke="black"/>
</svg>
