<svg width="38" height="12" viewBox="0 0 38 12" fill="none" xmlns="http://www.w3.org/2000/svg">
<rect width="38" height="12" rx="6" fill="url(#paint0_linear_803_11759)"/>
<path d="M6.22844 8.672L8.18044 3.184H9.36444L11.2924 8.672H10.1244L9.66844 7.36H7.71644L7.26844 8.672H6.22844ZM8.66044 4.472L7.97244 6.552H9.40444L8.69244 4.472H8.66044ZM11.935 8.672V3.184H13.903C15.199 3.184 15.879 3.72 15.879 4.816C15.879 5.576 15.503 6 14.903 6.224V6.264L16.263 8.672H14.959L13.871 6.512H13.071V8.672H11.935ZM13.063 5.768H13.767C14.439 5.768 14.703 5.472 14.703 4.872C14.703 4.28 14.431 4.024 13.759 4.024H13.063V5.768ZM17.9069 8.672V4.04H16.3789V3.184H20.5789V4.04H19.0349V8.672H17.9069ZM21.334 8.672V3.184H22.478V8.672H21.334ZM25.0463 8.76C24.3103 8.76 23.7503 8.624 23.3663 8.424V7.552C23.8143 7.744 24.3343 7.888 24.9423 7.888C25.6383 7.888 25.9423 7.6 25.9423 7.168C25.9423 6.736 25.7583 6.576 25.1743 6.424L24.6783 6.296C23.8863 6.088 23.3823 5.704 23.3823 4.688C23.3823 3.744 23.9983 3.096 25.2623 3.096C26.0303 3.096 26.4463 3.232 26.7663 3.392V4.248C26.3983 4.12 25.9503 3.968 25.3343 3.968C24.7743 3.968 24.4703 4.192 24.4703 4.608C24.4703 4.992 24.6463 5.16 25.1663 5.296L25.6463 5.424C26.5423 5.664 27.0623 6.032 27.0623 7.048C27.0623 8.12 26.3983 8.76 25.0463 8.76ZM29.0085 8.672V4.04H27.4805V3.184H31.6805V4.04H30.1365V8.672H29.0085Z" fill="white"/>
<defs>
<linearGradient id="paint0_linear_803_11759" x1="8.5" y1="1.5" x2="28.7973" y2="8.7756" gradientUnits="userSpaceOnUse">
<stop stop-color="#698CFF"/>
<stop offset="1" stop-color="#3EB6F2"/>
</linearGradient>
</defs>
</svg>
