<svg width="24" height="24" viewBox="0 0 24 24" fill="none" xmlns="http://www.w3.org/2000/svg">
<circle cx="12" cy="12" r="8.5" stroke="black"/>
<path d="M12.0874 13.848C12.0874 14.04 12.034 14.1947 11.9274 14.312C11.8314 14.4187 11.6874 14.472 11.4954 14.472C11.3247 14.472 11.186 14.4187 11.0794 14.312C10.9834 14.1947 10.9354 14.04 10.9354 13.848V12.712C10.9354 12.488 10.9727 12.3227 11.0474 12.216C11.122 12.0987 11.2607 12.024 11.4634 11.992L11.7994 11.928C12.0554 11.8853 12.3007 11.816 12.5354 11.72C12.7807 11.6133 12.994 11.48 13.1754 11.32C13.3674 11.16 13.5167 10.968 13.6234 10.744C13.73 10.52 13.7834 10.2533 13.7834 9.944C13.7834 9.64533 13.7354 9.384 13.6394 9.16C13.5434 8.936 13.41 8.74933 13.2394 8.6C13.0687 8.45067 12.8714 8.33867 12.6474 8.264C12.434 8.17867 12.1994 8.136 11.9434 8.136C11.666 8.136 11.4207 8.17333 11.2074 8.248C11.0047 8.32267 10.8287 8.424 10.6794 8.552C10.53 8.68 10.402 8.82933 10.2954 9C10.1887 9.16 10.098 9.33067 10.0234 9.512C9.97004 9.64 9.90071 9.74667 9.81538 9.832C9.74071 9.90667 9.62338 9.944 9.46338 9.944C9.31404 9.944 9.18604 9.896 9.07938 9.8C8.98338 9.704 8.93538 9.576 8.93538 9.416C8.93538 9.352 8.94604 9.26667 8.96738 9.16C9.03138 8.904 9.13804 8.65333 9.28738 8.408C9.44738 8.16267 9.65004 7.944 9.89538 7.752C10.1514 7.56 10.4447 7.41067 10.7754 7.304C11.1167 7.18667 11.506 7.128 11.9434 7.128C12.3487 7.128 12.7327 7.18667 13.0954 7.304C13.458 7.42133 13.778 7.60267 14.0554 7.848C14.3327 8.08267 14.5514 8.376 14.7114 8.728C14.882 9.08 14.9674 9.48533 14.9674 9.944C14.9674 10.424 14.882 10.84 14.7114 11.192C14.5407 11.544 14.3167 11.8373 14.0394 12.072C13.7727 12.296 13.4634 12.4773 13.1114 12.616C12.77 12.744 12.4287 12.8293 12.0874 12.872V13.848ZM10.6794 16.296C10.6794 16.5413 10.7487 16.744 10.8874 16.904C11.0367 17.064 11.2394 17.144 11.4954 17.144C11.7407 17.144 11.938 17.064 12.0874 16.904C12.2367 16.744 12.3114 16.5413 12.3114 16.296C12.3114 16.04 12.2367 15.832 12.0874 15.672C11.938 15.512 11.7407 15.432 11.4954 15.432C11.25 15.432 11.0527 15.512 10.9034 15.672C10.754 15.832 10.6794 16.04 10.6794 16.296Z" fill="black"/>
</svg>
