<svg width="44" height="44" viewBox="0 0 44 44" fill="none" xmlns="http://www.w3.org/2000/svg">
<circle cx="22" cy="22" r="11.75" stroke="white" stroke-width="0.5"/>
<path d="M21.7744 16.0533C21.8649 15.8636 22.1351 15.8636 22.2256 16.0533L23.6736 19.0878C23.7829 19.3169 24.0008 19.4752 24.2525 19.5084L27.5859 19.9478C27.7944 19.9753 27.8778 20.2322 27.7253 20.377L25.2868 22.6918C25.1027 22.8666 25.0195 23.1226 25.0657 23.3723L25.6779 26.6783C25.7162 26.8851 25.4976 27.0439 25.3128 26.9436L22.3578 25.3397C22.1346 25.2186 21.8654 25.2186 21.6422 25.3397L18.6872 26.9436C18.5024 27.0439 18.2838 26.8851 18.3221 26.6783L18.9343 23.3723C18.9805 23.1226 18.8973 22.8666 18.7132 22.6918L16.2747 20.377C16.1222 20.2322 16.2056 19.9753 16.4141 19.9478L19.7475 19.5084C19.9992 19.4752 20.2171 19.317 20.3264 19.0878L21.7744 16.0533Z" stroke="white" stroke-width="0.5"/>
</svg>
